<svg width="51" height="59" viewBox="0 0 51 59" fill="none" xmlns="http://www.w3.org/2000/svg">
<circle cx="24.5375" cy="24.5375" r="24.5375" fill="#C4C4C4" fill-opacity="0.28"/>
<path d="M45.9212 8.75945H22.5966C20.1358 8.75945 18.0178 10.5298 18.0178 12.8378V54.4208C18.0178 56.7296 20.1357 58.5 22.5966 58.5H45.9202C48.3819 58.5 50.4999 56.7297 50.4999 54.4216V12.8378C50.4999 10.5298 48.382 8.75945 45.9212 8.75945ZM20.8697 16.2582H47.6481V46.1272H20.8697V16.2582ZM22.5966 11.3841H45.9202C46.9365 11.3841 47.6481 12.0964 47.6481 12.8378V13.6335H20.8697V12.8378C20.8697 12.0963 21.5815 11.3841 22.5966 11.3841ZM45.9212 55.8753H22.5966C21.5815 55.8753 20.8697 55.1632 20.8697 54.4216V48.7519H47.6481V54.4216C47.6481 55.1632 46.9363 55.8753 45.9212 55.8753Z" fill="#FDCF30" stroke="#FDCF30"/>
<path d="M34.259 48.5642C32.0037 48.5642 30.0552 50.186 30.0552 52.3136C30.0552 54.4412 32.0037 56.063 34.259 56.063C36.5142 56.063 38.4627 54.4412 38.4627 52.3136C38.4627 50.186 36.5142 48.5642 34.259 48.5642ZM34.259 53.4383C33.4503 53.4383 32.9071 52.874 32.9071 52.3136C32.9071 51.7532 33.4503 51.1889 34.259 51.1889C35.0676 51.1889 35.6108 51.7532 35.6108 52.3136C35.6108 52.874 35.0676 53.4383 34.259 53.4383Z" fill="#FDCF30" stroke="#FDCF30"/>
<path d="M30.5553 13.8212H34.2591C34.9838 13.8212 35.6851 13.2937 35.6851 12.5088C35.6851 11.724 34.9838 11.1965 34.2591 11.1965H30.5553C29.8306 11.1965 29.1294 11.724 29.1294 12.5088C29.1294 13.2937 29.8306 13.8212 30.5553 13.8212Z" fill="#FDCF30" stroke="#FDCF30"/>
<path d="M37.037 13.8212H37.963C38.6877 13.8212 39.3889 13.2937 39.3889 12.5088C39.3889 11.724 38.6877 11.1965 37.963 11.1965H37.037C36.3123 11.1965 35.6111 11.724 35.6111 12.5088C35.6111 13.2937 36.3123 13.8212 37.037 13.8212Z" fill="#FDCF30" stroke="#FDCF30"/>
</svg>
