<svg width="51" height="56" viewBox="0 0 51 56" fill="none" xmlns="http://www.w3.org/2000/svg">
<circle cx="21.6619" cy="21.6619" r="21.6619" fill="#C4C4C4" fill-opacity="0.28"/>
<path d="M42.5064 28.3826H25.4766C24.8248 28.3826 24.2954 28.9106 24.2954 29.5638C24.2954 30.2169 24.8248 30.745 25.4766 30.745H42.5064C43.1583 30.745 43.6876 30.2169 43.6876 29.5638C43.6876 28.9106 43.1583 28.3826 42.5064 28.3826Z" fill="#FDCF30" stroke="#FDCF30"/>
<path d="M25.4766 25.2954H32.2885C32.9404 25.2954 33.4697 24.7674 33.4697 24.1143C33.4697 23.4611 32.9404 22.9331 32.2885 22.9331H25.4766C24.8248 22.9331 24.2954 23.4611 24.2954 24.1143C24.2954 24.7674 24.8248 25.2954 25.4766 25.2954Z" fill="#FDCF30" stroke="#FDCF30"/>
<path d="M42.5064 33.8321H25.4766C24.8248 33.8321 24.2954 34.3601 24.2954 35.0133C24.2954 35.6665 24.8248 36.1945 25.4766 36.1945H42.5064C43.1583 36.1945 43.6876 35.6665 43.6876 35.0133C43.6876 34.3601 43.1583 33.8321 42.5064 33.8321Z" fill="#FDCF30" stroke="#FDCF30"/>
<path d="M42.5064 39.2816H25.4766C24.8248 39.2816 24.2954 39.8097 24.2954 40.4628C24.2954 41.116 24.8248 41.644 25.4766 41.644H42.5064C43.1583 41.644 43.6876 41.116 43.6876 40.4628C43.6876 39.8097 43.1583 39.2816 42.5064 39.2816Z" fill="#FDCF30" stroke="#FDCF30"/>
<path d="M42.5064 44.7312H25.4766C24.8248 44.7312 24.2954 45.2592 24.2954 45.9124C24.2954 46.5655 24.8248 47.0936 25.4766 47.0936H42.5064C43.1583 47.0936 43.6876 46.5655 43.6876 45.9124C43.6876 45.2592 43.1583 44.7312 42.5064 44.7312Z" fill="#FDCF30" stroke="#FDCF30"/>
<path d="M40.4176 13.5428L40.2712 13.3964H40.0641H17.9839H17.4839V13.8964V54.7679V55.2679H17.9839H49.9999H50.4999V54.7679V23.8323V23.6251L50.3535 23.4787L40.4176 13.5428ZM39.1009 25.2955H48.1376V52.9055H19.8463V15.7588H38.6009V24.7955V25.2955H39.1009ZM40.9632 22.9331V17.4291L46.4672 22.9331H40.9632Z" fill="#FDCF30" stroke="#FDCF30"/>
</svg>
