<svg width="53" height="58" viewBox="0 0 53 58" fill="none" xmlns="http://www.w3.org/2000/svg">
<circle cx="22.6596" cy="22.6596" r="22.6596" fill="#C4C4C4" fill-opacity="0.28"/>
<path d="M30.377 13.5C18.3136 13.5 8.5 23.3136 8.5 35.377C8.5 47.4404 18.3136 57.254 30.377 57.254C42.4404 57.254 52.254 47.4404 52.254 35.377C52.254 23.3136 42.4404 13.5 30.377 13.5ZM30.377 54.8289C19.6518 54.8289 10.9251 46.1022 10.9251 35.377C10.9251 24.6518 19.6518 15.9251 30.377 15.9251C41.1022 15.9251 49.8289 24.6518 49.8289 35.377C49.8289 46.1022 41.1022 54.8289 30.377 54.8289Z" fill="#FDCF30" stroke="#FDCF30"/>
<path d="M32.2296 20.3407C31.5604 20.3407 31.017 20.8828 31.017 21.5533V37.4423H20.8285C20.1594 37.4423 19.616 37.9844 19.616 38.6549C19.616 39.3254 20.1594 39.8675 20.8285 39.8675H32.2296C32.8988 39.8675 33.4422 39.3254 33.4422 38.6549V21.5533C33.4422 20.8828 32.8988 20.3407 32.2296 20.3407Z" fill="#FDCF30" stroke="#FDCF30"/>
</svg>
