<svg width="52" height="59" viewBox="0 0 52 59" fill="none" xmlns="http://www.w3.org/2000/svg">
<circle cx="22.9066" cy="22.9066" r="22.9066" fill="#C4C4C4" fill-opacity="0.28"/>
<path d="M51 28.0252H42.856V18.6719C42.856 12.8317 37.7496 8.144 31.5509 8.144C25.3523 8.144 20.2459 12.8317 20.2459 18.6719V28.0252H12.9663H12.4663V28.5252V50.9997V57.9149V58.4149H12.9663H51H51.5V57.9149V50.9997V28.5252V28.0252H51ZM22.9747 18.6719C22.9747 14.4131 26.7791 10.8728 31.5509 10.8728C36.3227 10.8728 40.1272 14.4131 40.1272 18.6719V28.0252H22.9747V18.6719ZM48.7712 55.6861H15.1951V53.2285H48.7712V55.6861ZM15.1951 50.4997V30.754H20.7459H42.356H48.7712V50.4997H15.1951Z" fill="#FDCF30" stroke="#FDCF30"/>
<path d="M31.983 34.9405C29.8 34.9405 28.0254 36.7151 28.0254 38.8981V44.0845C28.0254 46.2675 29.8 48.0421 31.983 48.0421C34.166 48.0421 35.9406 46.2675 35.9406 44.0845V38.8981C35.9406 36.7151 34.166 34.9405 31.983 34.9405ZM33.2118 44.0845C33.2118 44.7618 32.6603 45.3133 31.983 45.3133C31.3057 45.3133 30.7542 44.7618 30.7542 44.0845V38.8981C30.7542 38.2208 31.3057 37.6693 31.983 37.6693C32.6603 37.6693 33.2118 38.2208 33.2118 38.8981V44.0845Z" fill="#FDCF30" stroke="#FDCF30"/>
</svg>
