<svg width="12" height="14" viewBox="0 0 12 14" fill="none" xmlns="http://www.w3.org/2000/svg">
<path d="M6 10.1494C5.73145 10.1494 5.47461 10.0644 5.28418 9.91194L3.04688 8.12195C2.64941 7.80696 2.64941 7.29446 3.04688 6.97693C3.44043 6.65945 4.08105 6.65945 4.47754 6.97693L5 7.39446V1.34944C5 0.906958 5.44629 0.549438 6 0.549438C6.55273 0.549438 7 0.906958 7 1.34944V7.39446L7.52148 6.97693C7.71875 6.81946 7.97754 6.73943 8.2373 6.73943C8.49707 6.73943 8.75586 6.81946 8.95312 6.97693C9.34961 7.29192 9.34961 7.80442 8.95312 8.12195L6.71582 9.91194C6.52441 10.0644 6.26855 10.1494 6 10.1494Z" fill="#333D98"/>
<path d="M10 10.1494C10 9.70696 10.4473 9.34944 11 9.34944C11.5527 9.34944 12 9.70696 12 10.1494V13.3494H0V10.1494C0 9.70696 0.447266 9.34944 1 9.34944C1.55273 9.34944 2 9.70696 2 10.1494V11.7494H10V10.1494Z" fill="#333D98"/>
</svg>
