<svg width="51" height="56" viewBox="0 0 51 56" fill="none" xmlns="http://www.w3.org/2000/svg">
<circle cx="21.7216" cy="21.7216" r="21.7216" fill="#C4C4C4" fill-opacity="0.28"/>
<path d="M38.5244 13.4346C31.921 13.4346 26.5489 18.8067 26.5489 25.4102C26.5489 27.7217 27.2094 29.8817 28.3479 31.7139L9.69222 50.3696C9.21653 50.8453 9.21653 51.6152 9.69222 52.0909C9.92939 52.3281 10.2417 52.4475 10.5528 52.4475C10.864 52.4475 11.1763 52.3281 11.4135 52.0909L14.139 49.3654L19.0161 54.2426C19.2533 54.4797 19.5656 54.5992 19.8767 54.5992C20.1878 54.5992 20.5002 54.4797 20.7373 54.2426C21.213 53.7669 21.213 52.997 20.7373 52.5213L15.8602 47.6441L17.7251 45.7793L21.1677 49.222C21.4049 49.4592 21.7173 49.5786 22.0284 49.5786C22.3395 49.5786 22.6518 49.4592 22.889 49.222C23.3647 48.7463 23.3647 47.9764 22.889 47.5007L19.4463 44.058L21.3112 42.1932L26.1883 47.0703C26.4255 47.3075 26.7378 47.4269 27.0489 47.4269C27.36 47.4269 27.6724 47.3075 27.9095 47.0703C28.3852 46.5946 28.3852 45.8248 27.9095 45.3491L23.0324 40.4719L29.8548 33.6495C32.0359 35.9444 35.1118 37.3858 38.5244 37.3858C45.1279 37.3858 50.5 32.0137 50.5 25.4102C50.5 18.8067 45.1279 13.4346 38.5244 13.4346ZM38.5244 34.9513C33.2636 34.9513 28.9834 30.671 28.9834 25.4102C28.9834 20.1494 33.2636 15.8691 38.5244 15.8691C43.7852 15.8691 48.0655 20.1494 48.0655 25.4102C48.0655 30.671 43.7852 34.9513 38.5244 34.9513Z" fill="#FDCF30" stroke="#FDCF30"/>
</svg>
