<svg width="51" height="56" viewBox="0 0 51 56" fill="none" xmlns="http://www.w3.org/2000/svg">
<circle cx="22.0221" cy="22.0221" r="22.0221" fill="#C4C4C4" fill-opacity="0.28"/>
<path d="M47.6995 25.8309C47.6995 26.604 48.3267 27.2312 49.0998 27.2312C49.8729 27.2312 50.5001 26.604 50.5001 25.8309V18.6287C50.5001 15.8695 48.2559 13.6274 45.4987 13.6274H38.2965C37.5234 13.6274 36.8962 14.2545 36.8962 15.0276C36.8962 15.8007 37.5234 16.4279 38.2965 16.4279H45.4987C46.7116 16.4279 47.6995 17.4158 47.6995 18.6287V25.8309Z" fill="#FDCF30" stroke="#FDCF30"/>
<path d="M38.1581 54.5163H45.3603C48.1174 54.5163 50.3616 52.2742 50.3616 49.5149V42.3128C50.3616 41.5397 49.7344 40.9125 48.9614 40.9125C48.1883 40.9125 47.5611 41.5397 47.5611 42.3128V49.5149C47.5611 50.7278 46.5732 51.7158 45.3603 51.7158H38.1581C37.385 51.7158 36.7578 52.3429 36.7578 53.116C36.7578 53.8891 37.385 54.5163 38.1581 54.5163Z" fill="#FDCF30" stroke="#FDCF30"/>
<path d="M11.1491 54.5163H18.3513C19.1243 54.5163 19.7515 53.8891 19.7515 53.116C19.7515 52.3429 19.1243 51.7158 18.3513 51.7158H11.1491C9.93616 51.7158 8.94825 50.7278 8.94825 49.5149V42.3128C8.94825 41.5397 8.32107 40.9125 7.54798 40.9125C6.77488 40.9125 6.14771 41.5397 6.14771 42.3128V49.5149C6.14771 52.2742 8.39191 54.5163 11.1491 54.5163Z" fill="#FDCF30" stroke="#FDCF30"/>
<path d="M6.14771 25.8309C6.14771 26.604 6.77488 27.2312 7.54798 27.2312C8.32107 27.2312 8.94825 26.604 8.94825 25.8309V18.6287C8.94825 17.4158 9.93616 16.4279 11.1491 16.4279H18.3513C19.1243 16.4279 19.7515 15.8007 19.7515 15.0276C19.7515 14.2545 19.1243 13.6274 18.3513 13.6274H11.1491C8.39191 13.6274 6.14771 15.8695 6.14771 18.6287V25.8309Z" fill="#FDCF30" stroke="#FDCF30"/>
<path d="M18.3524 45.5136H38.1584C39.9236 45.5136 41.3593 44.0779 41.3593 42.3128V36.9111C41.3593 36.138 40.7321 35.5108 39.959 35.5108C39.1859 35.5108 38.5587 36.138 38.5587 36.9111V42.3128C38.5587 42.5324 38.3786 42.713 38.1584 42.713H18.3524C18.1323 42.713 17.9522 42.5324 17.9522 42.3128V36.9111C17.9522 36.138 17.325 35.5108 16.5519 35.5108C15.7788 35.5108 15.1516 36.138 15.1516 36.9111V42.3128C15.1516 44.0779 16.5872 45.5136 18.3524 45.5136Z" fill="#FDCF30" stroke="#FDCF30"/>
<path d="M38.6966 24.8614C38.6966 25.6345 39.3238 26.2617 40.0969 26.2617C40.87 26.2617 41.4972 25.6345 41.4972 24.8614V17.6592C41.4972 15.894 40.0616 14.4584 38.2964 14.4584H18.4904C16.7252 14.4584 15.2896 15.894 15.2896 17.6592V24.8614C15.2896 25.6345 15.9167 26.2617 16.6898 26.2617C17.4629 26.2617 18.0901 25.6345 18.0901 24.8614V17.6592C18.0901 17.4395 18.2702 17.2589 18.4904 17.2589H38.2964C38.5165 17.2589 38.6966 17.4395 38.6966 17.6592V24.8614Z" fill="#FDCF30" stroke="#FDCF30"/>
<path d="M12.9503 38.3114H43.5596C44.3327 38.3114 44.9599 37.6842 44.9599 36.9111C44.9599 36.138 44.3327 35.5108 43.5596 35.5108H12.9503C12.1772 35.5108 11.55 36.138 11.55 36.9111C11.55 37.6842 12.1772 38.3114 12.9503 38.3114Z" fill="#FDCF30" stroke="#FDCF30"/>
</svg>
